<?xml version="1.0" encoding="utf-8"?>
<!-- Generator: Adobe Illustrator 26.0.2, SVG Export Plug-In . SVG Version: 6.00 Build 0)  -->
<svg version="1.1" id="Layer_1" xmlns="http://www.w3.org/2000/svg" xmlns:xlink="http://www.w3.org/1999/xlink" x="0px" y="0px"
	 viewBox="0 0 250 179.9" style="enable-background:new 0 0 250 179.9;" xml:space="preserve">
<style type="text/css">
	.st0{fill:#FF5242;}
	.st1{clip-path:url(#SVGID_00000178923335695253635150000009029053840455771016_);}
	.st2{fill:#A47551;}
	.st3{fill:#E7F1EF;}
	.st4{clip-path:url(#SVGID_00000173849274249058805690000002131935134689497008_);}
	.st5{clip-path:url(#SVGID_00000031173505670196505140000017309942235191649421_);}
	.st6{clip-path:url(#SVGID_00000018219015910518160350000001028234435398133682_);}
	.st7{clip-path:url(#SVGID_00000010999290779078427760000000972436709468736687_);}
	.st8{clip-path:url(#SVGID_00000171681440821981046220000005520628676799031188_);}
	.st9{clip-path:url(#SVGID_00000083066849279347440640000009663937020022458505_);}
	.st10{clip-path:url(#SVGID_00000046301251845902743680000010751859766886972851_);}
	.st11{clip-path:url(#SVGID_00000035493001250471462400000000297137251062260915_);}
</style>
<g id="Group_36" transform="translate(0 76)">
	<g id="Group_1" transform="translate(0.001 -75.912)">
		<path id="Path_1" class="st0" d="M0.9,1.6v130.8H26V75.1h31.5V49.9H26v-22h44.6V1.6H0.9z"/>
	</g>
	<g>
		<defs>
			<rect id="SVGID_1_" x="0.9" y="-74.5" width="248.2" height="177"/>
		</defs>
		<clipPath id="SVGID_00000140726032460247628630000018263578816518931883_">
			<use xlink:href="#SVGID_1_"  style="overflow:visible;"/>
		</clipPath>
		
			<g id="Group_4" transform="translate(0 -76)" style="clip-path:url(#SVGID_00000140726032460247628630000018263578816518931883_);">
			<g id="Group_2" transform="translate(39.574 0.088)">
				<path id="Path_2" class="st0" d="M120.9,22v59.4c0.1,11.1-8.7,20.1-19.8,20.3H66.9v30.7H41.8V1.6h59.3
					C112.2,1.8,121,10.9,120.9,22 M95.5,27.9H66.9v47.7h28.5L95.5,27.9z"/>
			</g>
			<g id="Group_3" transform="translate(83.715 0.088)">
				<path id="Path_3" class="st0" d="M165.2,89.9V112c0.2,11.1-8.6,20.2-19.6,20.4h-38.5c-11.1-0.2-19.8-9.4-19.6-20.4V22
					c-0.2-11.1,8.6-20.2,19.6-20.4h38.5c11.1,0.2,19.8,9.4,19.6,20.4v22.1h-25.1V27.9h-27.5v78.4h27.5V89.9H165.2z"/>
			</g>
		</g>
	</g>
	<g id="Group_5" transform="translate(0 -76)">
		<path id="Path_5" class="st0" d="M0.9,1.5v130.8H26V76.1h31.5V50H26V27.8h44.6V1.5H0.9z"/>
	</g>
	<path id="Path_6" class="st2" d="M0.9,102.5h248V67.4H0.9V102.5z"/>
	<g id="Group_6" transform="translate(5.009 -0.398)">
		<path id="Path_7" class="st3" d="M8.5,82.3V84h3.1v2.6H8.5v4.3H6.1V79.7h6.8v2.6H8.5z"/>
	</g>
	<path id="Path_8" class="st3" d="M23.3,90.5h-2.5V79.3h2.5V90.5z"/>
	<g>
		<defs>
			<rect id="SVGID_00000028311883955784818860000004419495178699318678_" x="0.9" y="-74.5" width="248.2" height="177"/>
		</defs>
		<clipPath id="SVGID_00000025437267001087745960000016266769637979531923_">
			<use xlink:href="#SVGID_00000028311883955784818860000004419495178699318678_"  style="overflow:visible;"/>
		</clipPath>
		
			<g id="Group_8" transform="translate(0 -76)" style="clip-path:url(#SVGID_00000025437267001087745960000016266769637979531923_);">
			<g id="Group_7" transform="translate(12.484 75.602)">
				<path id="Path_9" class="st3" d="M21.4,81.7v4.2c0,0.8-0.5,1.5-1.2,1.9l1.2,3.1h-2.6l-1.2-3h-1.4v3h-2.5V79.7h5.7
					C20.6,79.7,21.4,80.6,21.4,81.7 M19,84.8v-2c0-0.3-0.2-0.5-0.5-0.5c0,0,0,0,0,0h-2.2v3.1h2.2C18.7,85.3,19,85.1,19,84.8
					C19,84.8,19,84.8,19,84.8"/>
			</g>
		</g>
	</g>
	<g id="Group_9" transform="translate(17.676 -0.398)">
		<path id="Path_11" class="st3" d="M21.6,82.3V84h3.1v2.6h-3.1v1.8H26v2.6h-6.8V79.7H26v2.6H21.6z"/>
	</g>
	<g id="Group_10" transform="translate(22.277 -0.399)">
		<path id="Path_12" class="st3" d="M32.4,90.9h-2.5l-0.4-1.6h-2.7l-0.4,1.6h-2.5l3-11.2h2.4L32.4,90.9z M28.8,86.7l-0.6-2.4
			l-0.6,2.4H28.8z"/>
	</g>
	<g>
		<defs>
			<rect id="SVGID_00000000224338660314369210000006623625997472848306_" x="0.9" y="-74.5" width="248.2" height="177"/>
		</defs>
		<clipPath id="SVGID_00000165952268168243885920000007600943821779361946_">
			<use xlink:href="#SVGID_00000000224338660314369210000006623625997472848306_"  style="overflow:visible;"/>
		</clipPath>
		
			<g id="Group_12" transform="translate(0 -76)" style="clip-path:url(#SVGID_00000165952268168243885920000007600943821779361946_);">
			<g id="Group_11" transform="translate(27.596 75.602)">
				<path id="Path_13" class="st3" d="M37.1,81.7v4.2c0,0.8-0.5,1.5-1.2,1.9l1.2,3.1h-2.6l-1.2-3h-1.4v3h-2.5V79.7h5.7
					C36.2,79.7,37.1,80.6,37.1,81.7 M34.6,84.8v-2c0-0.3-0.2-0.5-0.5-0.5c0,0,0,0,0,0h-2.2v3.1h2.2C34.4,85.3,34.6,85.1,34.6,84.8
					C34.6,84.8,34.6,84.8,34.6,84.8"/>
			</g>
		</g>
	</g>
	<g id="Group_13" transform="translate(32.787 -0.398)">
		<path id="Path_15" class="st3" d="M43.7,79.7v11.2h-2.5v-5l-1.6,3.9h-0.8l-1.6-3.9v5h-2.5V79.7h2.5l2,4.9l2-4.9H43.7z"/>
	</g>
	<g>
		<defs>
			<rect id="SVGID_00000023999666482648784860000007813574353249001376_" x="0.9" y="-74.5" width="248.2" height="177"/>
		</defs>
		<clipPath id="SVGID_00000183242171243729230460000013252543064837595572_">
			<use xlink:href="#SVGID_00000023999666482648784860000007813574353249001376_"  style="overflow:visible;"/>
		</clipPath>
		
			<g id="Group_17" transform="translate(0 -76)" style="clip-path:url(#SVGID_00000183242171243729230460000013252543064837595572_);">
			<g id="Group_14" transform="translate(38.606 75.601)">
				<path id="Path_16" class="st3" d="M47.6,86v2.9c0,1.1-0.8,2-1.9,2c0,0,0,0,0,0h-4.9v-2.6h4.3v-1.7h-2.4c-1.1,0-1.9-0.9-1.9-2
					c0,0,0,0,0,0v-2.9c0-1.1,0.8-2,1.9-2h4.9v2.6h-4.3V84h2.4C46.8,84,47.6,84.9,47.6,86"/>
			</g>
			<g id="Group_15" transform="translate(46.803 75.602)">
				<path id="Path_17" class="st3" d="M57,81.7v4.2c0,1.1-0.9,2-1.9,2h-3.3v3h-2.5V79.7H55C56.1,79.7,57,80.6,57,81.7 M54.5,82.3
					h-2.7v3.1h2.7V82.3z"/>
			</g>
			<g id="Group_16" transform="translate(52.031 75.602)">
				<path id="Path_18" class="st3" d="M62.4,81.7l0,7.2c0,1.1-0.8,2-1.9,2c0,0,0,0,0,0h-3.8c-1.1,0-1.9-0.9-1.9-2c0,0,0,0,0,0v-7.2
					c0-1.1,0.8-2,1.9-2h3.8C61.5,79.7,62.4,80.6,62.4,81.7 M59.9,82.3h-2.7v6.1h2.7V82.3z"/>
			</g>
		</g>
	</g>
	<g id="Group_18" transform="translate(57.245 -0.398)">
		<path id="Path_20" class="st3" d="M62.6,88.4h4v2.6h-6.4V79.7h2.5V88.4z"/>
	</g>
	<path id="Path_21" class="st3" d="M129.2,90.5h-2.5V79.3h2.5V90.5z"/>
	<g>
		<defs>
			<rect id="SVGID_00000007427704162202153860000005179458511807873459_" x="0.9" y="-74.5" width="248.2" height="177"/>
		</defs>
		<clipPath id="SVGID_00000012432475827221422020000003228212050799753377_">
			<use xlink:href="#SVGID_00000007427704162202153860000005179458511807873459_"  style="overflow:visible;"/>
		</clipPath>
		
			<g id="Group_20" transform="translate(0 -76)" style="clip-path:url(#SVGID_00000012432475827221422020000003228212050799753377_);">
			<g id="Group_19" transform="translate(64.554 75.602)">
				<path id="Path_22" class="st3" d="M75.3,87.1v1.8c0,1.1-0.8,2-1.9,2h-3.8c-1.1,0-1.9-0.9-1.9-2v-7.2c0-1.1,0.8-2,1.9-2h3.8
					c1.1,0,1.9,0.9,1.9,2v1.8h-2.5v-1.3h-2.7v6.1h2.7v-1.3H75.3z"/>
			</g>
		</g>
	</g>
	<g id="Group_21" transform="translate(69.565 -0.398)">
		<path id="Path_24" class="st3" d="M78.9,79.7h2.5l-3,6.9v4.3h-2.5v-4.3l-3-6.9h2.5l1.7,4.1L78.9,79.7z"/>
	</g>
	<g>
		<defs>
			<rect id="SVGID_00000033352045296977169010000012215815334546685361_" x="0.9" y="-74.5" width="248.2" height="177"/>
		</defs>
		<clipPath id="SVGID_00000023995082167523900720000003489051149030919859_">
			<use xlink:href="#SVGID_00000033352045296977169010000012215815334546685361_"  style="overflow:visible;"/>
		</clipPath>
		
			<g id="Group_23" transform="translate(0 -76)" style="clip-path:url(#SVGID_00000023995082167523900720000003489051149030919859_);">
			<g id="Group_22" transform="translate(78.521 75.602)">
				<path id="Path_25" class="st3" d="M89.8,87.1v1.8c0,1.1-0.8,2-1.9,2h-3.8c-1.1,0-1.9-0.9-1.9-2v-7.2c0-1.1,0.8-2,1.9-2h3.8
					c1.1,0,1.9,0.9,1.9,2v1.8h-2.5v-1.3h-2.7v6.1h2.7v-1.3H89.8z"/>
			</g>
		</g>
	</g>
	<g id="Group_24" transform="translate(83.478 -0.399)">
		<path id="Path_27" class="st3" d="M95.7,90.9h-2.5l-0.4-1.6h-2.7l-0.4,1.6h-2.5l3-11.2h2.4L95.7,90.9z M92.1,86.7l-0.6-2.4
			l-0.6,2.4H92.1z"/>
	</g>
	<g id="Group_25" transform="translate(89.1 -0.398)">
		<path id="Path_28" class="st3" d="M101.9,79.7v11.2h-2.5v-5l-1.6,3.9h-0.8l-1.6-3.9v5h-2.5V79.7h2.5l2,4.9l2-4.9H101.9z"/>
	</g>
	<g>
		<defs>
			<rect id="SVGID_00000043417198080409830650000004037782530910144923_" x="0.9" y="-74.5" width="248.2" height="177"/>
		</defs>
		<clipPath id="SVGID_00000081646498222671598560000001206468574387596681_">
			<use xlink:href="#SVGID_00000043417198080409830650000004037782530910144923_"  style="overflow:visible;"/>
		</clipPath>
		
			<g id="Group_27" transform="translate(0 -76)" style="clip-path:url(#SVGID_00000081646498222671598560000001206468574387596681_);">
			<g id="Group_26" transform="translate(94.919 75.602)">
				<path id="Path_29" class="st3" d="M106.7,81.7v4.2c0,1.1-0.9,2-1.9,2h-3.3v3h-2.5V79.7h5.7C105.9,79.7,106.8,80.6,106.7,81.7
					 M104.3,82.3h-2.7v3.1h2.7V82.3z"/>
			</g>
		</g>
	</g>
	<g id="Group_28" transform="translate(99.566 -0.399)">
		<path id="Path_31" class="st3" d="M112.4,90.9h-2.5l-0.4-1.6h-2.7l-0.4,1.6h-2.5l3-11.2h2.4L112.4,90.9z M108.8,86.7l-0.6-2.4
			l-0.6,2.4H108.8z"/>
	</g>
	<path id="Path_32" class="st3" d="M217.4,90.5h-2.5V79.3h2.5L217.4,90.5z"/>
	<g>
		<defs>
			<rect id="SVGID_00000039122554135482572810000013418773756277407111_" x="0.9" y="-74.5" width="248.2" height="177"/>
		</defs>
		<clipPath id="SVGID_00000030488554752549122990000009538871014547195556_">
			<use xlink:href="#SVGID_00000039122554135482572810000013418773756277407111_"  style="overflow:visible;"/>
		</clipPath>
		
			<g id="Group_30" transform="translate(0 -76)" style="clip-path:url(#SVGID_00000030488554752549122990000009538871014547195556_);">
			<g id="Group_29" transform="translate(107.867 75.602)">
				<path id="Path_33" class="st3" d="M115,82.3v6.1h2.7v-1.8h-1.4V84h3.8v4.9c0,1.1-0.8,2-1.9,2h-3.8c-1.1,0-1.9-0.9-1.9-2
					c0,0,0,0,0,0v-7.2c0-1.1,0.8-2,1.9-2c0,0,0,0,0,0h5.7v2.6H115z"/>
			</g>
		</g>
	</g>
	<g id="Group_31" transform="translate(113.08 -0.398)">
		<path id="Path_35" class="st3" d="M125.5,79.7v11.2H123l-2.7-5.8v5.8h-2.5V79.7h2.5l2.7,5.9v-5.9H125.5z"/>
	</g>
	<g>
		<defs>
			<rect id="SVGID_00000116941670258720196050000016600226647572539526_" x="0.9" y="-74.5" width="248.2" height="177"/>
		</defs>
		<clipPath id="SVGID_00000160871511741925705960000014700923345301695381_">
			<use xlink:href="#SVGID_00000116941670258720196050000016600226647572539526_"  style="overflow:visible;"/>
		</clipPath>
		
			<g id="Group_35" transform="translate(0 -76)" style="clip-path:url(#SVGID_00000160871511741925705960000014700923345301695381_);">
			<g id="Group_32" transform="translate(14.482 10.004)">
				<path id="Path_36" class="st3" d="M234.2,40.7h-7.1l0,0h-0.2l-0.4,0.6v-0.6h-1.4v0.5l-0.3-0.4v-0.1h-1.7l0,0H223l-0.5,0.8h-3.6
					l-0.6-0.4h-19.1l-0.3,0.4h-5.5l-0.6-0.4H183V41c-0.1-0.1-0.1-0.2-0.1-0.4c0-0.7,0-1.4,0-2.1c0-3.5,0-6.9,0-10.4
					c0.1-0.7-0.3-1.5-0.9-1.8c-1-0.6-2.3-0.3-3.1,0.5c-0.4,0.4-0.7,0.8-1,1.3c-1.8,2.4-3.5,4.8-5.3,7.2c-0.4,0.6-0.9,1.1-1.4,1.8
					c0-0.4,0-0.6,0-0.8c0.1-0.6-0.2-1-0.8-1c-0.8,0-1.7,0-2.5,0c-0.2,0-0.3,0.2-0.5,0.3c-0.1,0.2-0.3,0.3-0.4,0.5v0.1h-0.7v-1.2
					h-1.4v1.2h-1.1v-1.2h-1.4v1.2h-1.1v-1.2H160v1.2h-1.1v-1.2h-1.4v1.2h-1.1v-1.2H155v1.2H154v-1.2h-1.4v1.2h-1.1v-1.2h-1.4v1.2
					H150c0,0.1,0,0.1,0,0.2c-0.1-0.1-0.2-0.1-0.3-0.2H149v-1.2h-1.4v1.2h-1.1v-1.2h-1.4v1.2h-1.1v-1.2h-1.4v1.2h-1.1v-1.2h-1.4v1.2
					h-1.1v-1.2h-1.4v1.2h-1.1v-1.2h-1.4v1.2h-1v-1.2h-1.4v1.2h-1.1v-1.2h-1.4v1.2h-1.1v-1.2h-1.4v0.2c-0.4,0.1-0.8,0-1.2,0
					c-1.1-0.2-2.2-0.2-3.3-0.1c-0.2,0-0.4,0.1-0.5,0.2c-0.1,0.6-0.5,0.5-0.9,0.5c-0.4,0-0.5-0.3-0.5-0.6c-0.1-0.9-0.1-1.8-0.2-2.7
					c0.5-0.4,1.3,0.1,1.5-0.7C122.9,32,123,32,123,32c0.1,0.2,0.3,0.4,0.5,0.6h3.6c0.6-0.2,0.8-0.6,0.8-1.3c0-2.7,0-5.4,0-8.1
					c-0.1-0.3-0.1-0.6-0.2-0.9c-0.1-0.7-0.1-1.5-0.2-2.2c0-0.2-0.1-0.4-0.1-0.6h-1.4c-0.4,0.3-0.7,0.7-1,1.1c-0.5-0.5-0.9-1-1.4-1.4
					c-1.3-1-2.6-1.9-4-2.9c-0.4-0.3-1.1-0.4-1.3-0.8c-0.4-0.8-1.2-0.6-1.8-0.9c-0.2,0-0.5,0-0.7,0.2c-0.3,0.3-0.6,0.7-0.3,1.2
					c0.3,0.4,0.6,0.8,0.9,1.2c0.2,0.2,0.3,0.4,0.5,0.5c0.3,0.3,0.5,0.6,1,0.7c0.2,0,0.5,0.3,0.7,0.5c0.3,0.3,0.6,0.5,1,0.7
					c1,0.6,2.1,1.1,3.1,1.7c0.1,0.1,0.3,0.1,0.4,0.3c0.1,0.2,0.1,0.4,0.1,0.6c-0.2,0.1-0.3,0.1-0.5,0.1c-1-0.5-2.1-0.4-3,0.3
					c-0.4,0.3-0.8,0.5-1.2,0.7c-0.2,0.1-0.4,0.1-0.6,0c-0.4-0.1-0.7-0.2-1.1-0.2c-0.4,0-0.9,0.1-1.2-0.4c-0.1-0.1-0.3-0.1-0.5-0.1
					c-0.7,0-1.5,0-2.2,0c-0.3,0-0.5,0-0.7,0c0-0.8,0-1.6,0-2.3c0.1-0.9-0.5-1.7-1.4-1.7c0,0-0.1,0-0.1,0h-0.8c-0.3,0-0.7,0-1,0h-0.1
					v0c-0.1,0-0.1,0-0.2,0c-1-0.3-2.1-0.4-3.1-0.2c-0.9-0.1-1.8,0-2.7,0.2c-0.6,0.1-1.2,0.1-1.8,0c0.4-1,0.4-2.1,1.3-2.8
					c0.1-0.1,0.2-0.2,0.3-0.3v-0.1h0c0.2-0.3,0.1-0.6-0.1-0.8c-0.1-0.2-0.1-0.4-0.1-0.6c0.2-0.8-0.2-1.6-0.9-1.9
					c-0.1-0.1-0.3-0.1-0.4,0c-0.5,0.4-1,0.9-1.4,1.4c-0.2,0.3-0.2,0.7-0.3,1.1c-0.6,1.2-1,2.4-1.2,3.7c-0.1,0.2-0.2,0.3-0.4,0.4
					c-0.8,0.2-1.4,0.9-1.5,1.7c-0.2,0.9,0,1.9,0.4,2.6c-0.1,0-0.3,0.1-0.4,0.1v0.2h-0.7c-0.1,0-0.2,0.1-0.2,0.1
					c-0.7,0.3-0.8,1.1-0.8,1.8c-0.1,1.8-0.1,3.6,0,5.3c0,0.7,0.3,1.3,0.9,1.6h3.2c0.1,0,0.2,0,0.4,0c0.2,0,0.4,0.1,0.5,0.2
					c0.3,0.3,0.7,0.5,1.2,0.4c1.6,0,3.2,0,4.7,0c0.3,0,0.4,0.1,0.4,0.4c0,0.9,0,1.9,0,2.9c0,0,0-0.1-0.1-0.1v-0.5h-1.4v1.1h-1.1
					v-1.1h-1.4v1.1h-1.1v-1.1h-1.4v1.1h-1.1v-1.1H97v1.1h-1.1v-1.1h-1.4v0.2c-0.1-0.1-0.1-0.1-0.2-0.2c-0.1-0.1-0.2-0.3-0.3-0.4
					c0-0.1,0-0.1,0-0.2c0.3-1.3-0.5-1.7-1.4-2.2c-0.9-0.3-1.8-0.6-2.7-0.7c-1.3-0.3-2.7,0-4-0.3c-1.1-0.2-2.2-0.3-3.3-0.2
					c-0.4,0.1-0.8,0.3-1.2,0.5c-0.5,0.2-0.9,0.4-1.3,0.7c-0.3,0.2-0.5,0.4-0.6,0.7c-0.2,0.5,0.2,0.8,0.7,1c0.4,0.2,0.8,0.4,1.2,0.6
					c0.1,0,0.1,0.2,0.1,0.2c-0.4,0.2-0.7,0.4-1.1,0.5c-0.1,0-0.2,0-0.3-0.1c-0.5-0.4-1.2-0.5-1.8-0.4c-0.4,0-0.8,0.4-0.8,0.9
					c0,0.5,0,1.1,0.1,1.6c0.1,0.2,0.2,0.5,0.3,0.7c0.1,0.2,0.1,0.4,0.1,0.6c0,0.1-0.3,0.2-0.4,0.2c-0.4,0-0.7,0-1.1,0
					c-0.4,0.1-0.7,0.2-1,0.4c-0.3,0.1-0.6,0.2-0.9,0.2c-0.5,0-1,0-1.5,0c-0.4,0-0.6,0.1-0.6,0.6c0,0.4-0.2,0.5-0.5,0.5
					c-3.7,0-7.4,0-11.2,0c-0.1,0-0.4-0.2-0.4-0.3c0-0.5-0.4-0.5-0.7-0.5h-39c-0.7,0-1.3,0-2,0c-1.3-0.1-2.5,0.9-2.6,2.2
					c0,0.2,0,0.3,0,0.5c0,0.4-0.1,0.8-0.2,1.3c0,0.3,0,0.6,0,0.8c0.2,1.4,0.3,2.7,0.6,4.1c0.1,0.7,0.3,1.3,0.4,2
					c0.2,1.1,0.2,2.1,0.4,3.2c0.1,1.1,0.3,2.1,0.5,3.2c0.1,0.8,0,1.6,0.1,2.4c0.1,1.5,0.3,3.1,0.5,4.6c0,0.3,0,0.6,0,0.8
					c0,2.4,0,4.9,0.1,7.3c0,0.5,0.1,1,0.3,1.5c0.2,0.6,0.8,1,1.5,1c0.2,0,0.4,0,0.5,0.1c0.5,0.3,1.1,0.5,1.7,0.4c0.8,0,1.5,0,2.3,0
					c1,0.1,1.8-0.5,2.1-1.5c0.2-0.6,0.5-1.2,0.9-1.7c0.3-0.3,0.7-0.6,1.1-0.9c1.3-0.9,2.7-1.8,4-2.7c1.5-1.1,2.9-2.2,4.3-3.3
					c1-0.8,2.1-1.5,3.2-2.3c0.8-0.6,1.5-1.2,2.3-1.8c0.8-0.6,1.7-1.1,2.6-1.6c0.6-0.4,1.2-0.9,1.9-1.4c1.4-1,2.8-2,4.2-3
					c0.6-0.4,1.2-0.9,1.8-1.2c0.4-0.2,0.9-0.4,1.3-0.4c1.7,0,3.5,0,5.2,0c0.6,0,0.8-0.1,0.8-0.8c0-0.8,0-1.5,0-2.3
					c0,0,0-0.1,0.1-0.1c1.6,0.1,2.7-1,4-1.6c0.3-0.2,0.7-0.3,1.1-0.3c1.4,0,2.8,0,4.3,0c0.3,0,0.7-0.1,0.9-0.3
					c0.2-0.2,0.7-0.1,1-0.1c0.3,0,0.7-0.1,0.7,0.5c0,0.1,0.4,0.2,0.6,0.2c0.4,0,0.8,0,1.2,0c0.4,0,0.5,0.1,0.5,0.5
					c0,0.8,0,1.7,0,2.5c0,0.2,0.1,0.5,0.2,0.7c1.1,1.8,2.1,3.6,3.1,5.5c0.3,0.7,0.4,1.6,0.2,2.4C77.8,61.6,77,62.9,76,64
					c-0.8,1.2-1.5,2.4-2.3,3.6c-0.4,0.7-0.9,1.3-1.2,2.1c-0.8,1.6-1.6,3.3-2.4,5c-0.4,0.7-0.7,1.5-1,2.3c-0.6,1.1-0.3,2.4,0.8,3.1
					c0.1,0.1,0.2,0.1,0.4,0.2c1.3,0.7,2.7,1.4,4,2.1c1.4,0.7,2.8,1.3,4.2,2c0.7,0.3,1.4,0.6,2.1,1c0.6,0.2,1.3-0.1,1.5-0.7
					c0,0,0,0,0,0c0.1-0.3,0.1-0.7,0-1c-0.2-0.9-0.1-1.8,0.4-2.5c0.6-1.4,1.2-2.8,1.9-4.2c0.7-1.4,1.3-2.9,2-4.3
					c0.8-1.7,1.6-3.3,2.4-5c0.3-1.1,1.3-1.8,2.4-1.6c4.8,0,9.6,0,14.4,0c0.9,0,0.9,0,1,1c0.1,1.5,0.2,3,0.3,4.4
					c0.2,1.6,0.3,3.3,0.6,4.9c0.3,1.9,0.5,3.8,0.8,5.7c0.2,1.2,0.5,2.4,0.7,3.7c0.2,1.1,0.4,2.3,0.6,3.4c0.3,1.4,0.7,2.7,1.1,4
					c0.2,0.7,0.4,1.4,0.5,2.1c0.2,0.8,0.7,1.5,1.4,2c0.2,0.1,0.3,0.3,0.3,0.5c0.2,0.7,0.8,1.3,1.5,1.5c2.5,0.4,5,0.5,7.5,0.3
					c1.1-0.1,2.2-0.2,3.4-0.3c0.6-0.1,1.2-0.2,1.8-0.3c0.7-0.2,1.2-1,1.1-1.7c0-1.2,0-2.4,0-3.6c0-0.4,0-0.8,0.5-0.8
					c0.1,0,0.3-0.3,0.3-0.4c-0.1-0.7-0.2-1.4-0.4-2.1c-0.1-0.2-0.2-0.4-0.5-0.5c-0.4-0.2-0.5-0.4-0.5-0.8c-0.3-1.5-0.7-2.9-1-4.4
					c-0.3-1.1-0.5-2.3-0.7-3.4c-0.2-1.1-0.5-2.3-0.7-3.4c-0.2-1-0.3-2-0.4-2.9c-0.2-1.3-0.3-2.6-0.4-3.9c-0.1-0.5-0.1-1-0.1-1.5
					c-0.1-2-0.2-3.9-0.3-5.9c0-0.2,0.1-0.5,0.3-0.6c0.3-0.2,0.4-0.7,0.1-1c-0.3-0.5-0.4-1.1-0.4-1.7c0-1.8,0-3.5,0-5.3
					c0-0.4,0.2-0.8,0.4-1.1c0.5-0.8,1.2-1.4,2.1-1.7c0.6-0.3,0.9-0.9,0.9-1.5c0.3-0.1,0.7,0.1,0.8,0.5v1.1h1.4v-1.2h1.1v1.2h1.4
					v-1.2h1.1v1.2h1.4v-1.2h1.1v1.2h1.4v-1.2h1.1v1.2h1.4v-1.2h1.1v1.2h1.4v-1.2h1.1v1.2h1.4v-1.2h1.1v1.2h1.4v-1.2h1.1v1.2h1.4
					v-1.2h1.1v1.2h1.4v-1.2h1.1v1.2h1.4v-1.2h1.1v1.2h1.4v-1.2h1.1v1.2h1.4v-1.2h1.1v1.2h1.4v-1.2h1.1v1.2h1.4v-1.2h1.1v1.2h1.4
					v-1.2h0.7v0.4c0.1,0.1,0.3,0.3,0.4,0.4c0.2,0.2,0.4,0.4,0.5,0.4c0.8,0.1,1.5,0,2.3,0c0.8,0,1-0.3,1-1.1c0-0.7,0-1.5,0-2.2l0.3,0
					c0.2,0.4,0.3,0.8,0.3,1.2c0,1.5-0.1,3.1-0.1,4.6c0,0.3,0.1,0.6,0.3,0.8c0.6,0.4,1.4,0.2,1.7-0.4c0.1-0.2,0.2-0.4,0.2-0.7
					c0-0.6,0-1.1,0-1.7c0.1-0.8-0.1-1.7-0.7-2.3c-0.1-0.2-0.1-0.4-0.1-0.5c0.6-0.5,0.5-1.2,0.5-1.9c0-0.5,0.2-1.1,0.8-1.1
					c1.5,0,3,0,4.5,0c0.2,0,0.5,0.2,0.7,0.3c0.7,0.6,0.4,1.4,0.4,2.1c0,1.2,0,1.2,1.1,1.2c0.2,0,0.3,0,0.5,0.1c0.4,0,0.6,0,0.8-0.5
					c0.1-0.2,0.3-0.3,0.6-0.4c0.3,0,0.6,0,0.9,0c0.5,0,1-0.1,1-0.8c0.1-1,0-1.3-0.7-1.6c-0.4-0.2-0.8-0.3-1.2-0.5h-0.1v-0.3h9.7
					l0.6-0.4h5.5l0.3,0.4h19.1l0.6-0.4h3.6l0.5,0.8h0.2l0,0h1.7v-0.1l0.3-0.4v0.5h1.4v-0.6l0.4,0.6h0.2l0,0h7.1
					c0.3-0.9,0.4-1.9,0.4-2.8C234.6,42.5,234.5,41.6,234.2,40.7 M23.3,46.7c-0.3-0.6,0.1-0.9,0.8-0.9c1.3,0,2.7,0,4,0
					c0.5,0,1,0,1.5,0c0.4,0,0.7,0.3,0.7,0.7c0,0,0,0,0,0c0,0.4-0.3,0.6-0.7,0.6c-0.9,0-1.9,0-2.8,0l0,0c-1,0-1.9,0-2.9,0
					C23.6,47.1,23.4,46.9,23.3,46.7 M42,54.4c-0.6,0.5-1.2,1-1.8,1.5c-0.7,0.6-1.4,1.2-2.1,1.8c-1.1,0.9-2.3,1.9-3.4,2.8
					c-1.3,1.1-2.6,2.1-3.9,3.2c-1,0.8-1.9,1.6-2.9,2.4c-0.5,0.4-1,0.7-1.5,0.9c-0.8,0.3-1.7-0.1-2-0.9c-0.1-0.2-0.1-0.4-0.1-0.7
					c0-2.8,0-5.6,0-8.4c0.1-0.5,0.3-1,0.6-1.5c0.1-0.1,0.2-0.1,0.3-0.1c0.9,0.2,1.8-0.4,2-1.3c0.1-0.7,0.4-1.3,0.9-1.7
					c0.2-0.2,0.4-0.4,0.6-0.6c0.3-0.4,0.9-0.6,1.4-0.6l5.3,0l0,0.2c-1.6,0.6-3.1,1.3-4.7,1.9c-0.6,0.2-0.7,0.4-0.5,1
					c0.2,0.8,1,1.2,1.7,1c0.1,0,0.2-0.1,0.2-0.1c0.6-0.2,1.1-0.3,1.7-0.5c0.8-0.2,1.6-0.4,2.4-0.6c1.6-0.4,3.1-0.9,4.7-1.3
					c0.4-0.1,0.8,0,1,0.3C42.5,53.5,42.4,54,42,54.4 M51.8,47.1c-0.9,0-1.9,0-2.8,0l0,0c-1,0-1.9,0-2.9,0c-0.2,0-0.4-0.1-0.6-0.3
					c-0.3-0.6,0-1,0.8-1c1.6,0,3.1,0,4.7,0c0.2,0,0.5,0,0.7,0c0.4,0,0.7,0.3,0.7,0.7c0,0,0,0,0,0.1C52.5,47,52.2,47.1,51.8,47.1
					 M86,35.1c-0.6,0.1-1.2,0-1.8,0L84,35c0.2-0.2,0.3-0.5,0.5-0.5c0.6,0,1.2-0.1,1.9,0C86.2,34.8,86.1,35.1,86,35.1 M105.5,62.6
					c-0.3,0.7-0.7,1.4-1,2.1c-0.1,0.3-0.4,0.5-0.8,0.5c-2.7,0-5.4,0-8.1,0c-0.7,0.1-1.3-0.2-1.7-0.7c-0.9-0.9-1.4-2.2-1.3-3.4
					c-0.1-1.4,0.7-2.8,2-3.5c0.3-0.1,0.6-0.2,1-0.4c-0.1,0.3-0.2,0.5-0.2,0.8c-0.2,0.8-0.3,1.6-0.3,2.5c0.1,1.4,0.7,2.7,1.6,3.7
					c0.1,0.1,0.3,0.1,0.5,0.2c0-0.2,0-0.3,0-0.5c-0.3-0.8-0.5-1.6-0.6-2.4c0-1.4,0.6-2.8,1.7-3.7c0.3-0.2,0.6-0.4,0.9-0.4
					c1-0.1,1.9,0,2.9,0c0.7,0,1.4,0.3,1.9,0.7c0.7,0.6,1.2,1.4,1.4,2.3C105.8,60.9,105.8,61.8,105.5,62.6 M112,35.8
					c-0.2,0-0.4,0-0.6,0c0,0,0-0.1-0.1-0.2c0.2-0.1,0.4-0.2,0.6-0.3c0.1,0,0.2,0.1,0.4,0.1C112.2,35.6,112.1,35.7,112,35.8
					 M113.5,35.4h1.5C114.6,36,114,36,113.5,35.4 M116.7,35.8c-0.2,0-0.3-0.2-0.5-0.3c0-0.1,0.1-0.1,0.1-0.2h1.3
					C117.5,36,117,35.8,116.7,35.8 M124.8,93.7v2.4c0.1,0.8-0.5,1.5-1.2,1.6c0,0,0,0-0.1,0c-1.6,0.3-3.3,0.4-4.9,0.4
					c-0.5,0-0.9-0.2-1.2-0.7c-0.4-0.4-0.4-1.1,0-1.5c0.1-0.1,0.3-0.2,0.4-0.2c0.6-0.2,1.3-0.3,1.9-0.5c1.2-0.4,2.4-0.8,3.5-1.1
					C123.8,93.9,124.3,93.8,124.8,93.7 M136.2,38.6c1,0,1.9,0,2.9,0c0.3,0,0.6,0,0.9,0c0.2,0.1,0.4,0.1,0.6,0.2
					c-0.2,0.1-0.4,0.4-0.5,0.4c-0.7,0.1-1.3,0-2,0v0c-0.6,0-1.2,0-1.8,0c-0.2,0-0.4-0.2-0.6-0.3C135.8,38.9,136,38.6,136.2,38.6
					 M140,48.1c-1.3,0-2.6,0-3.9,0c-0.2,0-0.3-0.2-0.5-0.3c0.1-0.1,0.3-0.3,0.4-0.3c1.4,0,2.9,0,4.3,0c0,0,0.1,0.1,0.3,0.2
					C140.4,47.9,140.2,48.1,140,48.1 M143.3,38.8c0.2-0.1,0.5-0.1,0.7-0.2c1.2,0,2.5,0,3.7,0c0.2,0,0.3,0.2,0.5,0.3
					c-0.1,0.1-0.2,0.4-0.3,0.4c-1.5,0-2.9,0-4.4,0c-0.1,0-0.2-0.1-0.3-0.2C143.2,39,143.3,38.9,143.3,38.8 M147.9,48.1
					c-1.4,0-2.8,0-4.2,0c-0.1,0-0.2-0.2-0.4-0.4c0.2-0.1,0.3-0.3,0.5-0.3c0.7,0,1.4,0,2.1,0l0,0c0.6,0,1.3,0,1.9,0
					c0.1,0,0.3,0.2,0.4,0.3C148.1,47.8,148,48.1,147.9,48.1 M151.6,38.6c1.3,0,2.7,0,4,0c0.1,0,0.3,0.2,0.4,0.4
					c-0.1,0.1-0.3,0.3-0.4,0.3c-0.7,0-1.4,0-2.1,0v0c-0.6,0-1.3,0-1.9,0c-0.2,0-0.4-0.2-0.6-0.3C151.2,38.9,151.4,38.6,151.6,38.6
					 M155.4,48.1c-1.2,0-2.4,0-3.7,0c-0.2,0-0.4-0.2-0.6-0.3c0.2-0.1,0.4-0.3,0.7-0.3c1.3,0,2.5,0,3.8,0c0.1,0,0.3,0,0.4,0.1
					c0,0.1,0.1,0.2,0.1,0.3C155.8,47.9,155.6,48.1,155.4,48.1 M159.2,38.6c1.4,0,2.7,0,4.1,0c0.1,0,0.3,0.2,0.4,0.3
					c-0.2,0.1-0.3,0.4-0.5,0.4c-0.7,0-1.4,0-2.1,0v0c-0.6,0-1.2,0-1.9,0c-0.2,0-0.3-0.2-0.5-0.3C158.9,38.9,159.1,38.6,159.2,38.6
					 M163.2,48.1c-1.3,0-2.6,0-3.9,0c-0.2,0-0.3-0.2-0.5-0.3c0.1-0.1,0.2-0.3,0.3-0.3c1.5,0,3,0,4.5,0l0.1,0.3
					C163.5,47.9,163.3,48.1,163.2,48.1 M179.5,41.1c-1.7,0-3.3,0-5,0c-0.1,0-0.1-0.1-0.4-0.3c0.3-0.2,0.6-0.3,0.9-0.3
					c1.4,0,2.7,0,4.1,0c0.1,0,0.3,0,0.4,0c0.1,0.1,0.2,0.2,0.3,0.3C179.7,40.9,179.6,41.1,179.5,41.1 M181.1,37.5
					c0,0.7-0.5,0.8-1,0.8c-0.9,0-1.9,0-2.8,0v0c-0.9,0-1.9,0-2.8-0.1c-0.3,0-0.8-0.3-0.9-0.5c-0.1-0.4-0.1-0.9,0.2-1.2
					c0.8-1.2,1.7-2.3,2.6-3.5c0.4-0.5,0.8-1,1.2-1.5c0.3-0.3,0.7-0.5,1.1-0.6c0.7-0.1,1,0.2,1,0.9c0,0.4,0,0.9,0,1.4
					c0,0.6,0.3,1,0.9,0.9c0.7,0,0.8,0.3,0.8,0.9C181.3,35.8,181.2,36.7,181.1,37.5 M230.9,44c-1.3,0-2.3-0.2-2.3-0.5s1-0.5,2.3-0.5
					c1.3,0,2.3,0.2,2.3,0.5S232.2,44,230.9,44"/>
			</g>
			<g id="Group_33" transform="translate(39.572 -0.001)">
				<path id="Path_37" class="st0" d="M66.9,132.3H41.8V1.5h59.3c11.1,0.2,19.9,9.3,19.8,20.4V22H85.7v5.7H66.9V132.3z"/>
			</g>
			<g id="Group_34" transform="translate(53.136 10.004)">
				<path id="Path_38" class="st3" d="M89.3,23.3c-0.1-0.3-0.1-0.6-0.2-0.9c-0.1-0.7-0.1-1.5-0.2-2.2c0-0.2,0-0.4-0.1-0.5h-1.4
					c-0.4,0.3-0.7,0.7-1,1.1c-0.5-0.5-0.9-1-1.4-1.4c-1.3-1-2.6-1.9-4-2.9c-0.4-0.3-1.1-0.4-1.3-0.8c-0.4-0.8-1.2-0.6-1.8-0.9
					c-0.2,0-0.5,0-0.7,0.2c-0.3,0.3-0.6,0.7-0.3,1.2c0.3,0.5,0.6,0.8,0.9,1.2c0.2,0.2,0.3,0.4,0.5,0.5c0.3,0.3,0.5,0.6,1,0.7
					c0.2,0,0.5,0.3,0.7,0.5c0.3,0.3,0.6,0.5,1,0.7c1,0.6,2.1,1.1,3.1,1.7c0.1,0.1,0.3,0.1,0.4,0.3c0.1,0.2,0.1,0.4,0.1,0.6
					c-0.2,0.1-0.4,0.1-0.5,0.1c-1-0.5-2.1-0.4-3,0.3c-0.4,0.3-0.8,0.5-1.2,0.7c-0.2,0.1-0.4,0.1-0.6,0c-0.4-0.1-0.7-0.2-1.1-0.3
					c-0.4,0-0.9,0.1-1.2-0.4c0-0.1-0.3-0.1-0.5-0.1c-0.7,0-1.5,0-2.2,0c-0.3,0-0.5,0-0.7,0c0-0.8,0-1.6,0-2.3
					c0.1-0.9-0.5-1.7-1.4-1.7c0,0-0.1,0-0.1,0h-0.8c-0.3,0-0.7,0-1,0h-0.1v0c-0.1,0-0.1,0-0.2,0c-1-0.3-2.1-0.4-3.1-0.2
					c-0.9-0.1-1.8,0-2.7,0.2c-0.6,0.1-1.2,0.1-1.8,0c0.4-1,0.4-2.1,1.3-2.8c0.1-0.1,0.2-0.2,0.3-0.3v-0.1h0c0.2-0.3,0.1-0.6-0.1-0.8
					c-0.1-0.2-0.1-0.4-0.1-0.6c0.2-0.8-0.2-1.6-0.9-1.9c-0.1-0.1-0.3-0.1-0.4,0c-0.5,0.4-1,0.9-1.4,1.4c-0.2,0.3-0.2,0.7-0.3,1.1
					c-0.6,1.2-1,2.4-1.2,3.7c-0.1,0.2-0.2,0.3-0.4,0.4c-0.8,0.2-1.4,0.9-1.5,1.7c-0.2,0.9,0,1.9,0.4,2.6c-0.1,0-0.3,0.1-0.4,0.1v0.2
					H57c-0.1,0-0.2,0.1-0.2,0.1c-0.7,0.3-0.8,1.1-0.8,1.8c-0.1,1.8-0.1,3.6,0,5.3c0,0.7,0.3,1.3,0.9,1.6H60c0.1,0,0.2,0,0.4,0
					c0.2,0,0.4,0.1,0.5,0.2c0.3,0.3,0.7,0.5,1.2,0.4c1.6,0,3.2,0,4.7,0c0.3,0,0.4,0.1,0.4,0.4c0,0.4,0,0.8,0,1.3h15.5
					c0-0.5-0.1-1.1-0.1-1.6c0.5-0.4,1.3,0.1,1.5-0.7c0.1,0.1,0.2,0.1,0.2,0.1c0.1,0.2,0.3,0.4,0.5,0.5h3.6c0.6-0.2,0.8-0.6,0.8-1.3
					C89.3,28.6,89.3,26,89.3,23.3"/>
			</g>
		</g>
	</g>
</g>
</svg>
